<?xml version="1.0" encoding="UTF-8"?>
<svg xmlns="http://www.w3.org/2000/svg" xmlns:xlink="http://www.w3.org/1999/xlink" width="854" height="480" viewBox="0 0 854 480">
<defs>
<g>
<g id="glyph-0-0">
<path d="M 2.777344 0 L 0.179688 0 L 0.179688 -0.171875 L 2 -2.945312 L 1.546875 -2.945312 C 1.359375 -2.945312 1.210938 -2.941406 1.105469 -2.9375 C 1 -2.929688 0.898438 -2.90625 0.8125 -2.871094 C 0.75 -2.847656 0.691406 -2.777344 0.640625 -2.664062 C 0.585938 -2.554688 0.539062 -2.40625 0.5 -2.222656 L 0.304688 -2.222656 L 0.304688 -3.210938 L 2.757812 -3.210938 L 2.757812 -3.074219 L 0.910156 -0.265625 C 0.988281 -0.261719 1.074219 -0.261719 1.167969 -0.257812 C 1.261719 -0.257812 1.363281 -0.257812 1.472656 -0.257812 C 1.558594 -0.257812 1.648438 -0.257812 1.742188 -0.261719 C 1.835938 -0.261719 1.957031 -0.269531 2.105469 -0.277344 C 2.191406 -0.28125 2.257812 -0.308594 2.304688 -0.363281 C 2.347656 -0.417969 2.382812 -0.480469 2.40625 -0.550781 C 2.429688 -0.613281 2.457031 -0.699219 2.492188 -0.808594 C 2.527344 -0.921875 2.554688 -1.027344 2.582031 -1.132812 L 2.777344 -1.132812 Z "/>
</g>
</g>
</defs>
<g fill="rgb(100%, 100%, 100%)" fill-opacity="1">
<use xlink:href="#glyph-0-0" x="30" y="26.112305"/>
</g>
</svg>
